<?xml version="1.0" encoding="utf-8"?>
<!-- Generator: Adobe Illustrator 22.1.0, SVG Export Plug-In . SVG Version: 6.00 Build 0)  -->
<svg version="1.1" xmlns="http://www.w3.org/2000/svg" xmlns:xlink="http://www.w3.org/1999/xlink" x="0px" y="0px"
	 viewBox="0 0 1400 1200" style="enable-background:new 0 0 1400 1200;" xml:space="preserve">
<style type="text/css">
	.st0{fill:#00000000;}
	.st1{fill:#2471ff;}
	.st2{fill:#ffd9c2;}
	.st3{fill:#26f700;}
	.st4{fill:#E2DACC;}
	.st5{fill:white;}
	.st6{fill:#26f700;}
	.st7{fill:white;}
	.st8{fill:#FFA297;}
	.st9{fill:#ee2e39;}
	.st10{fill:#EE2E39;}
	.st11{fill:#FBEEE2;}
	.st12{fill:black;}
	.st13{fill:#c68642;}
	.st14{fill:#F1987B;}
	.st15{fill:#FFA297;}
	.st16{fill:none;stroke:#FDFCFA;stroke-width:5;stroke-linecap:round;stroke-linejoin:round;stroke-miterlimit:10;}
	.st17{fill:white;}
	.st18{fill:white;}
	.st19{fill:#EEE9E0;}
	.st20{fill:#AEEDE1;}
	.st21{fill:#ee2e39;}
	.st22{fill:#ffff00;}
	.st23{fill:#26f700;}
</style>
<g id="BACKGROUND">
	<rect class="st0" width="1400" height="1200"/>
</g>
<g id="OBJECT">
	<g>
		<g>
			<path class="st1" d="M871,1107.4c-53.8,18.6-110.9,32.3-170.2,39.7c0,0-79.6,5.9-166.7-28.3c-42.1-16.5-85.9-42.4-123.3-82.8
				C266.4,880.2,85.1,923.6,137.9,767.3S246.6,484.8,242.4,321c-5.4-207.3,304-40,464.1-156.7s442.5-71.7,465.1,120.4
				c22.6,192.1-60.3,184.5,69.7,346.5C1350.7,767.7,1160.3,1007.4,871,1107.4z"/>
			<g>
				<g>
					<path class="st2" d="M937.9,375.3l-17.8-6.8l0,0c1.6-4.3,6.4-6.4,10.6-4.8l10.1,3.8L937.9,375.3z"/>
				</g>
			</g>
			<g>
				<g>
					<rect x="940.5" y="368.6" class="st2" width="29.3" height="21.3"/>
				</g>
			</g>
			<g>
				<g>
					<polygon class="st2" points="440.2,699.2 379.6,693.3 423.3,394.9 455,398 					"/>
				</g>
			</g>
			<g>
				<g>
					<polygon class="st2" points="964.3,686.1 1023.9,679.2 975.6,386 944.4,389.6 					"/>
				</g>
			</g>
			<g>
				<path class="st3" d="M1212.5,866.9c-1.1-2.3-3-4.5-5.5-4.8c-1.4-0.1-2.9,0.4-4.2,0.9c-14.3,5.7-26.8,14.9-39.2,24.1
					c-21.8,16.2-43.5,32.3-65.3,48.5c6.4-10.8,12.4-21.9,17.9-33.2l0,0c0,0,0,0,0-0.1c5.4-11.2,10.3-22.6,14.7-34.1
					c11.1-6.2,22.1-12.3,33.2-18.5c6.7-3.7,13.4-7.5,19-12.7c6-5.6,10.5-12.6,14.4-19.9c3.3-6.1,6.3-12.8,5.3-19.6
					c-1-6.8-7.5-13.2-14.2-11.6c-4,1-6.9,4.5-9.4,7.8c-8.9,11.4-17.7,22.7-26.6,34.1c-4.9,6.3-9.9,12.7-14.3,19.3
					c6.5-20.2,11.6-40.9,15-61.9c10.6-10.3,23.3-18.2,33.5-28.8c10.2-10.7,17.9-25.6,14.4-40c-0.5-2.2-1.4-4.5-3.3-5.8
					c-3.6-2.6-8.6-0.3-11.8,2.7c-8.3,7.8-11.3,19.5-15.5,30.1c-4.1,10.2-9.5,19.7-15.4,29c2.7-20.3,3.8-40.8,3.4-61.5
					c4.1-20.4,9.5-40.6,5.7-60.8c-0.8-4.1-1.9-8.2-4.6-11.4c-2.6-3.2-7-5.2-11-4.1c-4.1,1.2-6.6,5.2-8.2,9.1
					c-6.3,15.2-4.2,32.7,0.6,48.5c3,10,7.1,19.6,10.7,29.4c-0.1,18.6-1.6,37.2-4.2,55.5c-2.4-16.9-9.1-33.4-15.6-49.7
					c-4.3-10.7-9.1-22-19.7-29.4c-0.7-0.5-1.6-1-2.5-0.9c-1.4,0.2-2,1.6-2.2,2.7c-3.6,19.7,2.4,40.5,16.4,57
					c7.6,9,17.8,17.2,22.5,27.2c-5.1,31.1-13.7,61.5-25.6,90.6c9.5-31.6,10.6-65.6,2.9-97.7c-1.3-5.3-2.9-10.7-6.6-14.6
					c-3.7-4-10-6-14.6-3.2c-5.5,3.3-6,11.1-5.4,17.5c3.4,36.5,18.2,72,19.4,108.1c-8.5,19.4-18.4,38.1-29.6,56
					c6.1-15.5,6.4-33.3,6.4-50.3c0-24.2,0-48.6-5-72.3c-0.9-4.1-2-8.4-4.7-11.6c-2.8-3.2-7.7-5-11.4-2.9c-2.1,1.2-3.5,3.3-4.6,5.4
					c-11.4,21.4-7,47.6-0.3,70.9c6.7,23.3,15.6,47.1,12.2,71.1l0.5,0.4c-9,13.4-18.8,26.4-29.3,38.7c2.9-14.9,2.8-30.4,2.7-45.7
					c-0.1-11.8-0.3-23.7-2.8-35.3c-2.5-11.5-7.9-22.9-17.6-29.4c-2.8-1.9-6.6-3.2-9.4-1.3c-1.2,0.8-1.9,2.2-2.5,3.5
					c-9.2,19.3-2.2,42.2,6,61.9c7.6,18.3,16.4,37.7,14.1,57.2c-12.3,13.4-25.5,26.1-39.5,37.8c3.1-14.3,3-29.2,1-43.7
					c-2.4-17.4-7.3-34.4-12.2-51.3c-2.3-7.9-4.6-15.9-8.3-23.2c-0.8-1.5-1.7-3.1-3.3-3.7c-2.5-0.9-5.1,1.2-6.8,3.3
					c-6.9,9.2-7.2,21.7-6.1,33.1c2.1,21.1,8.3,41.9,18.2,60.6c4.8,9.1,10.4,17.7,14.6,27.1c-9.7,7.9-19.8,15.4-30.2,22.5
					c-3.6,2.4-0.2,8.4,3.4,5.9c10.7-7.2,21-14.8,30.9-23c15.3,3.3,30.7,6.7,46,10c9.8,2.1,19.7,4.3,29.7,4.6c8,0.3,16-0.6,23.9-1.7
					c15.8-2.4,31.5-6,46.7-10.9c7-2.2,14.7-5.5,17-12.4c-4.2-2.2-9.1-2.2-13.8-2.3c-20-0.1-40.1-0.3-60.2-0.4
					c-28.3-0.2-57.4-0.3-84.1,8.6c13.6-11.5,26.4-23.9,38.4-37.1c8.7,6.2,20.4,6.6,31.2,6.8c12.8,0.2,25.7,0.4,38.4-1.4
					c14.7-2,28.9-6.5,42.9-11.5c8.8-3.1,17.8-6.7,24.1-13.5c6.3-6.8,9-17.9,3.7-25.6c-3-4.3-8-6.8-13.1-7.9
					c-14.3-3.1-28.7,3.8-41.6,10.5c-8.1,4.2-16.2,8.4-23.6,13.7c-5.8,4.1-11.1,8.8-17.4,12c-5.5,2.8-11.6,4.5-17.6,6
					c-7.5,2-15.1,4-22.6,6c15.1-17.1,28.8-35.3,40.9-54.5c21.1-2.5,42.3-5.6,62.3-12.9c21.8-8.1,42.2-21.9,54.1-41.8
					C1212.8,883.6,1215.9,874.6,1212.5,866.9z"/>
				<path class="st3" d="M444.8,916.8c-1.6,0.6-2.5,2.2-3.3,3.7c-3.7,7.3-6,15.3-8.3,23.2c-4.9,16.9-9.8,33.9-12.2,51.3
					c-2,14.5-2.1,29.5,1,43.7c-14-11.7-27.2-24.3-39.5-37.8c-2.3-19.4,6.5-38.8,14.1-57.2c8.2-19.8,15.1-42.6,6-61.9
					c-0.6-1.3-1.4-2.6-2.5-3.5c-2.7-2-6.6-0.6-9.4,1.3c-9.8,6.5-15.1,18-17.6,29.4c-2.5,11.5-2.7,23.5-2.8,35.3
					c-0.2,15.3-0.3,30.8,2.7,45.7c-10.5-12.3-20.3-25.2-29.3-38.7l0.5-0.4c-3.4-24,5.4-47.8,12.2-71.1c6.7-23.3,11.1-49.5-0.3-70.9
					c-1.1-2.1-2.5-4.3-4.6-5.4c-3.7-2-8.6-0.3-11.4,2.9c-2.8,3.2-3.9,7.5-4.7,11.6c-4.9,23.7-5,48.1-5,72.3c0,17,0.3,34.8,6.4,50.3
					c-11.2-17.9-21.2-36.6-29.6-56c1.2-36.2,16-71.6,19.4-108.1c0.6-6.4,0.2-14.2-5.4-17.5c-4.6-2.8-11-0.8-14.6,3.2
					c-3.7,4-5.3,9.4-6.6,14.6c-7.7,32.1-6.6,66.1,2.9,97.7c-11.9-29.1-20.5-59.5-25.6-90.6c4.8-10,14.9-18.2,22.5-27.2
					c14-16.5,19.9-37.2,16.4-57c-0.2-1.1-0.7-2.5-2.2-2.7c-0.9-0.1-1.8,0.4-2.5,0.9c-10.6,7.4-15.3,18.7-19.7,29.4
					c-6.6,16.3-13.2,32.8-15.6,49.7c-2.7-18.3-4.1-36.9-4.2-55.5c3.6-9.8,7.6-19.5,10.7-29.4c4.8-15.8,6.9-33.2,0.6-48.5
					c-1.6-3.9-4.2-7.9-8.2-9.1c-4-1.1-8.3,0.9-11,4.1c-2.6,3.2-3.8,7.3-4.6,11.4c-3.8,20.2,1.7,40.4,5.7,60.8
					c-0.4,20.6,0.7,41.1,3.4,61.5c-5.9-9.3-11.4-18.8-15.4-29c-4.2-10.6-7.2-22.3-15.5-30.1c-3.2-3-8.3-5.3-11.8-2.7
					c-1.8,1.3-2.7,3.6-3.3,5.8c-3.4,14.4,4.2,29.3,14.4,40c10.2,10.7,23,18.5,33.5,28.8c3.4,21,8.5,41.7,15,61.9
					c-4.5-6.6-9.4-13-14.3-19.3c-8.9-11.4-17.7-22.7-26.6-34.1c-2.6-3.3-5.4-6.8-9.4-7.8c-6.7-1.7-13.2,4.7-14.2,11.6
					c-1,6.8,2,13.5,5.3,19.6c3.9,7.2,8.4,14.3,14.4,19.9c5.6,5.2,12.4,9,19,12.7c11.1,6.2,22.1,12.3,33.2,18.5
					c4.4,11.6,9.3,23,14.7,34.1c0,0,0,0,0,0.1l0,0c5.5,11.3,11.4,22.4,17.9,33.2c-21.8-16.2-43.5-32.3-65.3-48.5
					c-12.3-9.2-24.9-18.4-39.2-24.1c-1.3-0.5-2.8-1-4.2-0.9c-2.5,0.3-4.5,2.5-5.5,4.8c-3.5,7.6-0.4,16.7,3.9,23.9
					c11.9,20,32.3,33.8,54.1,41.8c19.9,7.4,41.1,10.5,62.3,12.9c12.2,19.2,25.9,37.5,40.9,54.5c-7.5-2-15.1-4-22.6-6
					c-6-1.6-12.1-3.2-17.6-6c-6.3-3.2-11.6-7.9-17.4-12c-7.4-5.3-15.5-9.5-23.6-13.7c-13-6.7-27.4-13.6-41.6-10.5
					c-5.1,1.1-10.1,3.6-13.1,7.9c-5.3,7.6-2.6,18.7,3.7,25.6c6.3,6.8,15.4,10.4,24.1,13.5c14,5,28.2,9.5,42.9,11.5
					c12.7,1.7,25.6,1.6,38.4,1.4c10.8-0.2,22.5-0.6,31.2-6.8c12,13.1,24.8,25.5,38.4,37.1c-26.7-8.9-55.8-8.8-84.1-8.6
					c-20.1,0.1-40.1,0.3-60.2,0.4c-4.7,0-9.6,0.1-13.8,2.3c2.3,6.9,10.1,10.2,17,12.4c15.2,4.9,30.9,8.5,46.7,10.9
					c7.9,1.2,15.9,2,23.9,1.7c10-0.4,19.9-2.5,29.7-4.6c15.3-3.3,30.7-6.7,46-10c9.9,8.1,20.2,15.8,30.9,23c3.7,2.5,7.1-3.5,3.4-5.9
					c-10.5-7-20.5-14.5-30.2-22.5c4.1-9.4,9.8-18,14.6-27.1c9.9-18.8,16.2-39.5,18.2-60.6c1.1-11.4,0.8-23.9-6.1-33.1
					C449.9,918,447.3,915.9,444.8,916.8z"/>
			</g>
			<g>
				<g>
					<path class="st4" d="M837.8,595.9c0,2.6-60.3,4.7-134.8,4.7s-134.8-2.1-134.8-4.7c0-2.6,60.3-7.4,134.8-7.4
						S837.8,593.3,837.8,595.9z"/>
				</g>
			</g>
			<g>
				<g>
					<g>
						<g>
							<path class="st3" d="M680.2,571.3c5.1-7.6,9.8-16,9.4-25.1c-0.4-9.8-6.5-18.8-6.1-28.6c0.2-6.3,3.2-12.4,3.4-18.7
								c0.3-8.3-4.1-16.1-10-21.9c-5.9-5.7-13.4-9.7-20.7-13.5c-8.5-4.5-17.1-9-25.6-13.5c-4.8-2.5-10.6-5.1-15.5-2.6
								c1.4,10.2,11.7,18.2,10.9,28.4c-0.3,3.7-2.1,7.1-2.3,10.8c-0.9,12.9,15.5,20,20,32.2c2.1,5.6,1.4,11.8,2.1,17.8
								c1.9,16.2,15.5,30.2,31.6,32.7L680.2,571.3z"/>
						</g>
					</g>
					<g>
						<g>
							<g>
								<path class="st5" d="M680.7,627.9c4.5-46.9-2.9-93.6-21.2-137c-1.6-3.9-7.2-0.5-5.6,3.3c17.9,42.3,24.7,88,20.4,133.7
									C673.8,632.1,680.3,632,680.7,627.9L680.7,627.9z"/>
							</g>
						</g>
					</g>
				</g>
				<g>
					<g>
						<g>
							<path class="st3" d="M634.5,578.8c-10.3-11.4-20.9-23.4-24.7-38.3c-0.9-3.6-1.4-7.5-3.1-10.8c-6.8-13.5-28.4-13.2-36-26.2
								c-2.2-3.8-2.9-8.3-3.2-12.7c-0.7-10.4,0.6-21.2-3.5-30.8c-2.5-5.8-6.9-10.7-8.8-16.7c-0.4-1.3-0.7-2.8-0.2-4.1
								c0.5-1.5,1.9-2.4,3.2-3.2c7-4.4,14.9-7.3,23.1-8.7c2.7-0.5,5.6-0.7,8.2,0.2c4.1,1.5,6.6,5.6,7.8,9.7
								c1.2,4.1,1.4,8.5,2.4,12.7c4.2,16.5,21.3,26.7,27.6,42.5c4.5,11.3,3.3,24.8,10.6,34.5c2.6,3.4,6.2,6.2,8.2,10
								c3.4,6.1,2.2,13.6,0.9,20.5c-1.5,8.3-4.1,17.9-11.9,21.2"/>
						</g>
					</g>
					<g>
						<g>
							<g>
								<path class="st5" d="M599.7,496.2c17.1,18,24.8,41.6,30.2,65.4c6.4,27.9,9.5,56.5,3,84.7c-1,4.1,5.3,5.8,6.3,1.7
									c6.8-29.3,3.7-59.1-3-88.1c-5.7-24.9-14-49.4-31.9-68.2C601.4,488.5,596.8,493.2,599.7,496.2L599.7,496.2z"/>
							</g>
						</g>
					</g>
				</g>
				<g>
					<g>
						<g>
							<path class="st6" d="M581.2,582.5c-7.3,9.7-11.5,21.8-11.9,33.9c-0.1,2.6-0.2,5.7-2.3,7.2c-0.8,0.6-1.9,0.9-2.8,1.2
								c-7.2,2.2-13.4,7.7-16.5,14.6c-3,6.8-3.1,14.4-3.1,21.8c0,9.3,0,18.5,0,27.8c0,1.3-0.1,2.8-1.1,3.7c-1.5,1.4-4,0.2-5.5-1.2
								c-3.3-3.3-4.8-7.9-5.9-12.4c-2.1-8.7-3.2-17.7-3.1-26.6c0-6.4,0.6-13.2-2.1-19c-1-2.2-2.5-4.2-3.4-6.5
								c-2.1-5.5-0.4-11.7,2-17c2.5-5.3,5.8-10.3,7.1-16c1.8-7.8,0.1-16.9,5.3-23c4.3-5,11.6-5.9,18.2-5.6
								c9.9,0.5,19.6,2.9,28.6,7.1c3,1.4,6.2,3.3,7.1,6.4c-2.9,1-6,1.4-9,1.1"/>
						</g>
					</g>
					<g>
						<g>
							<g>
								<path class="st7" d="M621.2,606c-8.5-16.3-21.4-32.2-41.8-29.3c-20,2.8-32,20.3-39.3,37.5c-1.6,3.8,4,7.1,5.6,3.3
									c6.1-14.5,15.1-29.3,31.3-33.7c19-5.1,30.8,10.8,38.5,25.5C617.5,613,623.1,609.7,621.2,606L621.2,606z"/>
							</g>
						</g>
					</g>
				</g>
				<g>
					<g>
						<g>
							<path class="st3" d="M704.2,574c-2.2-11.7-5.8-23.1-10.9-33.9c-3-6.4-6.6-13-5.9-20c0.8-8.5,7.8-15.4,9-23.9
								c0.8-5.9-1.3-11.8-2.7-17.6c-2.2-8.8-2.7-18.5,1.2-26.7c4.9-10.4,15.8-16.6,26.7-20.3c8.8-3,18-4.9,27.3-5.5
								c1.9-0.1,4.1-0.1,5.6,1.1c2.3,1.8,2,5.3,1.2,8.1c-1.6,5.6-4.6,11.1-4,16.9c0.5,4.6,3.2,8.8,3.3,13.5
								c0.2,5.1-2.7,9.8-6.1,13.6c-3.4,3.8-7.5,6.9-10.7,10.9c-5.3,6.8-7.6,15.7-7.5,24.3c0,8.6,2.2,17.1,4.8,25.4
								c2,6.1,4.2,12.9,1.3,18.6c-2.1,4.2-6.5,6.7-10.7,8.7c-6.9,3.2-14.2,5.7-21.6,7.4"/>
						</g>
					</g>
					<g>
						<g>
							<g>
								<path class="st5" d="M726.2,447.6c-12.3,28.5-15.7,61.7-19.6,92.2c-4.4,35-6.4,70.3-6.1,105.6c0,4.2,6.6,4.2,6.5,0
									c-0.3-32.5,1.4-64.9,5.1-97.1c3.7-31.8,6.9-67.6,19.7-97.3C733.4,447.1,727.8,443.8,726.2,447.6L726.2,447.6z"/>
							</g>
						</g>
					</g>
				</g>
				<g>
					<g>
						<g>
							<path class="st3" d="M758.9,576.1c11.2-11.5,17.5-27.6,17-43.6c-0.2-5.3-1.1-10.8,0.5-15.9c1.9-6.4,7.3-11.1,12.1-15.8
								c13.6-13.2,24.9-29.8,28-48.5c1.7-10.4,0.3-22.2-7.4-29.5c-5.3-4.9-12.6-6.9-19.7-8.3c-6.1-1.2-13.5-1.5-17.2,3.5
								c-4.2,5.6-0.5,13.6-1,20.6c-0.9,11.9-14,19.3-17.9,30.6c-2.3,6.6-1.2,13.9-1.1,20.9c0.2,13.1-3,26.3-9.3,37.8
								c-3.2,5.9-7.2,11.4-9.5,17.7c-2.9,8.2-2.3,17.8,2.9,24.7c5.2,6.9,15.3,10.2,23,6.3"/>
						</g>
					</g>
					<g>
						<g>
							<g>
								<path class="st5" d="M777.6,476.1c-27.1,55.1-31.6,116.8-35.3,177.1c-0.3,4.2,6.3,4.2,6.5,0c3.6-59.1,7.8-119.8,34.4-173.8
									C785.1,475.6,779.5,472.3,777.6,476.1L777.6,476.1z"/>
							</g>
						</g>
					</g>
				</g>
				<g>
					<g>
						<g>
							<path class="st3" d="M586.2,526.8c-1.9,5.1-3.9,10.2-5.8,15.2c-0.6,1.6-1.3,3.3-2.5,4.4c-3.5,3.2-9.5,1.1-13.6,3.5
								c-5.1,3-4.2,10.4-4.6,16.3c-0.5,7.6-4.4,14.8-10.5,19.4c-3.6,2.7-8.1,4.6-10.8,8.2c-1.9,2.4-2.8,5.4-3.6,8.3
								c-2.7,9.8-4.4,20-5,30.1c-0.3,4.8-0.8,10.4-4.9,12.8c-4,2.3-9.1,0.1-12.5-3c-9.9-9.2-10.6-24.5-8.6-37.9
								c2-13.3,6.2-26.8,3.7-40c-1.8-9.4-6.7-19.4-2.3-27.9c4.4-8.3,15.7-10.4,21.1-18c2.6-3.7,3.7-8.6,6.9-11.9
								c5.4-5.5,14.4-4.4,21.9-2.9c6.6,1.3,13.3,2.7,19,6.1c5.7,3.4,10.4,9.4,10.4,16.1"/>
						</g>
					</g>
					<g>
						<g>
							<g>
								<path class="st5" d="M626.8,623.7c-2.3-18.1-6.3-35.8-12.6-52.9c-5.5-14.7-11.9-30.9-22.2-42.9c-8.4-9.8-21-15.6-33.5-10.4
									c-14.6,6-24.1,22.9-29.9,36.6c-1.6,3.8,4,7.1,5.6,3.3c5.2-12,12.7-26.3,24.6-32.8c17.7-9.5,30.7,9,37.8,22.5
									c12.5,23.9,20.4,49.9,23.8,76.6C620.8,627.8,627.3,627.9,626.8,623.7L626.8,623.7z"/>
							</g>
						</g>
					</g>
				</g>
				<g>
					<g>
						<g>
							<path class="st6" d="M794.2,524.9c5.8-0.4,11.6-0.2,17.3,0.6c8.1,1.2,16.9,4.6,20.1,12.1c1.9,4.5,1.3,9.5,1.6,14.3
								c0.4,6.7,2.4,13.4,5.8,19.2c3.1,5.2,7.2,9.8,9.7,15.3c5.3,11.5,2.6,25.4,7,37.2c0.4,1.2,1.3,2.5,2.5,2.4
								c0.7-0.1,1.3-0.7,1.7-1.3c5.7-7.9,7-18.1,7.3-27.9c0.3-9.8-0.2-19.7,2.6-29.1c1.2-3.9,2.9-7.7,3.1-11.7
								c0.4-6.7-3.4-12.9-7-18.5c-2.6-4-5.1-7.9-7.7-11.9c-2-3.1-4.2-6.4-7.4-8.3c-2.3-1.3-5-1.9-7.2-3.5c-3.7-2.8-4.7-8-8.2-11
								c-3.7-3.2-9.2-3-13.9-1.7c-11.1,3-20.7,11.3-25.2,21.9"/>
						</g>
					</g>
					<g>
						<g>
							<g>
								<path class="st7" d="M780.8,636.4c-2.6-28.6-5.3-58.7,4.2-86.3c4.6-13.4,14-33.3,30.9-32.7c18.6,0.7,27.7,20.4,34.3,34.9
									c1.7,3.8,7.4,0.5,5.6-3.3c-6.7-14.6-14.6-30.5-30.8-36.3c-14.2-5-26.9,1.6-35.2,13.2c-22.5,31.3-18.8,74.3-15.6,110.5
									C774.7,640.5,781.2,640.6,780.8,636.4L780.8,636.4z"/>
							</g>
						</g>
					</g>
				</g>
				<g>
					<g>
						<g>
							<path class="st6" d="M801.2,570.6c2.2-0.9,4.4-1.9,6.7-2.1s4.9,0.4,6.5,2.1c3,3.3,1.3,9,3.9,12.6c0.8,1.2,2,2,3.1,2.8
								c2,1.5,4.1,2.9,6.1,4.4c2.3,1.6,4.7,3.4,5.8,6c1.6,3.6,0.5,7.7-0.2,11.6c-1.4,7.7-0.9,15.9,2.4,22.9c0.9,1.9,2.3,3.9,4.4,4
								c1.5,0.1,2.8-0.8,4-1.6c2.1-1.4,4.1-2.9,6.2-4.3c2.5-1.7,5-3.5,7-5.8c2.7-3.1,4.3-6.9,5.9-10.7c2.8-6.6,5.5-13.4,6.7-20.5
								c1.2-7.1,0.7-14.7-2.7-21c-2.7-5-7.1-8.9-9.9-13.8c-2-3.5-3.1-7.4-5.7-10.5c-3-3.5-7.7-5.4-12.3-5.8
								c-4.6-0.4-9.3,0.5-13.8,1.7c-6.4,1.8-12.8,4.3-17.9,8.6c-5.1,4.3-8.8,10.7-8.6,17.4c0,1.2,0.4,2.6,1.5,2.9"/>
						</g>
					</g>
					<g>
						<g>
							<g>
								<path class="st7" d="M854.9,585.9c-4.1-18.9-28.7-46.1-50-32c-10.1,6.7-12.8,21.3-15.8,32.1c-5.1,18.2-9,36.6-12,55.3
									c-0.6,4.1,5.6,5.9,6.3,1.7c3.6-22.9,8.3-46.2,15.8-68.2c1.5-4.3,3-9.3,6.3-12.6c6.6-6.6,16.1-5.5,23.7-1.3
									c10.3,5.7,16.8,15.4,19.3,26.7C849.5,591.8,855.8,590,854.9,585.9L854.9,585.9z"/>
							</g>
						</g>
					</g>
				</g>
			</g>
			<g>
				<g>
					<g>
						<g>
							<path class="st8" d="M603.5,388.2l-52.2-88.1l-114.7,68.1l43,72.5c5.1,8.6,16.2,11.4,24.8,6.3L603.5,388.2z"/>
						</g>
					</g>
					<g>
						<g>
							<path class="st9" d="M603.5,388.2c0,0-17.6-16.2-32.1-40.5c-14.4-24.3-20.2-47.6-20.2-47.6s17.6,16.2,32.1,40.5
								C597.8,365,603.5,388.2,603.5,388.2z"/>
						</g>
					</g>
					<g>
						<g>
							
								<rect x="503.9" y="357.4" transform="matrix(0.5102 0.8601 -0.8601 0.5102 579.6792 -280.7895)" class="st10" width="64.9" height="22.4"/>
						</g>
					</g>
				</g>
				<g>
					<g>
						<g>
							<path class="st11" d="M626,390.5c-0.1,2.7-2.3,4.9-5.1,4.8c-2.7-0.1-4.9-2.3-4.8-5.1c0.1-2.7,2.3-4.9,5.1-4.8
								C623.9,385.5,626.1,387.7,626,390.5z"/>
						</g>
					</g>
					<g>
						<g>
							<path class="st11" d="M609,365.2c-0.1,2.7-2.3,4.9-5.1,4.8c-2.7-0.1-4.9-2.3-4.8-5.1c0.1-2.7,2.3-4.9,5.1-4.8
								C606.9,360.2,609,362.5,609,365.2z"/>
						</g>
					</g>
					<g>
						<g>
							<path class="st11" d="M651,403c-0.1,2.7-2.3,4.9-5.1,4.8s-4.9-2.3-4.8-5.1c0.1-2.7,2.3-4.9,5.1-4.8
								C648.8,398,651,400.3,651,403z"/>
						</g>
					</g>
					<g>
						<g>
							<path class="st11" d="M622.8,421.2c-0.1,2.7-2.3,4.9-5.1,4.8c-2.7-0.1-4.9-2.3-4.8-5.1c0.1-2.7,2.3-4.9,5.1-4.8
								C620.7,416.2,622.9,418.4,622.8,421.2z"/>
						</g>
					</g>
					<g>
						<g>
							<path class="st11" d="M614,456.7c-0.1,2.7-2.3,4.9-5.1,4.8c-2.7-0.1-4.9-2.3-4.8-5.1c0.1-2.7,2.3-4.9,5.1-4.8
								C611.9,451.7,614,454,614,456.7z"/>
						</g>
					</g>
					<g>
						<g>
							<path class="st11" d="M654.3,438.4c-0.1,2.7-2.3,4.9-5.1,4.8c-2.7-0.1-4.9-2.3-4.8-5.1s2.3-4.9,5.1-4.8
								S654.3,435.6,654.3,438.4z"/>
						</g>
					</g>
				</g>
			</g>
			<g>
				<g>
					<path class="st12" d="M867.9,780.1c-3.8-11.5-9.9-22-14.1-33.3c-5.8-15.6-7.8-32.6-5.8-49.2c1.1-9,3.3-18.1,1.5-27
						c-1.3-6.3-4.5-11.9-7.7-17.5l0-0.1c-2.3-4.1-3.5-8.7-3.5-13.3v-43.7h-275v36.4c0,16.8-8.2,32.8-22.3,41.9
						c-0.1,0.1-0.2,0.1-0.3,0.2c-5,3.2-10.5,5.8-14.3,10.4c-13.6,16.3,3.6,41.8-3,62c-3.3,10.1-12.5,17.7-15.1,28.1
						c-3.2,12.5,3.8,25.3,12.2,35.1c8.3,9.8,18.5,18.7,23.3,30.7c5.9,14.7,2.8,31.8,9.3,46.2c6.5,14.4,21.4,23.3,36.6,27.7
						c15.1,4.4,31.3,5.3,46.8,2.5c12.5-2.2,24.7-6.8,37.4-6.8c26.8,0,50.2,20.1,77,21.2c13.6,0.6,27-3.9,39.1-10
						c9.3-4.7,18.3-10.7,23.8-19.5c9.5-15.1,6.9-35.6,16.8-50.5c9.6-14.5,28.9-20.7,36.9-36.1C872.9,804.6,871.7,791.5,867.9,780.1z
						"/>
				</g>
			</g>
			<g>
				<g>
					<path class="st2" d="M587.9,595.9c-10.9,21.4-17.1,46.3-17.1,72.9c0,80.4,57,145.6,127.4,145.6s127.4-65.2,127.4-145.6
						c0-26.6-6.3-51.5-17.1-72.9H587.9z"/>
				</g>
			</g>
			<g>
				<g>
					<path class="st12" d="M813,595.9h-56.2c8.5,7.7,16.2,16.2,19,26.7c1.8,7.1,1.2,14.5,2.1,21.7c1.7,14.5,9.6,28.2,21.7,37.7
						c8.9,7,20.1,11.9,28.7,19c2.2-10.4,3.5-21.1,3.5-32.2C831.7,642.2,824.9,617.3,813,595.9z"/>
				</g>
			</g>
			<g>
				<g>
					<g>
						<path class="st13" d="M707.9,746.6h-19.4c-0.6,0-1.2-0.3-1.6-0.7c-0.4-0.5-0.6-1.1-0.5-1.7l8.4-76.2c0.1-1.2,1.2-2,2.4-1.9
							c1.2,0.1,2.1,1.2,1.9,2.4l-8.1,73.8h17c1.2,0,2.2,1,2.2,2.2S709.1,746.6,707.9,746.6z"/>
					</g>
				</g>
			</g>
			<g>
				<g>
					<g>
						<g>
							<path class="st13" d="M747.4,674.3c-10.5,0-17.1-6.6-17.2-6.7c-0.8-0.9-0.8-2.2,0.1-3.1c0.9-0.8,2.2-0.8,3.1,0.1
								c0.5,0.5,12.2,12.2,29.8-0.3c1-0.7,2.3-0.5,3,0.5c0.7,1,0.5,2.3-0.5,3C758.8,672.7,752.6,674.3,747.4,674.3z"/>
						</g>
					</g>
				</g>
				<g>
					<g>
						<g>
							<path class="st13" d="M647.5,674.3c-10.5,0-17.1-6.6-17.2-6.7c-0.8-0.9-0.8-2.2,0.1-3.1c0.9-0.8,2.2-0.8,3.1,0.1
								c0.5,0.5,12.2,12.1,29.8-0.3c1-0.7,2.3-0.5,3,0.5c0.7,1,0.5,2.3-0.5,3C658.9,672.7,652.7,674.3,647.5,674.3z"/>
						</g>
					</g>
				</g>
			</g>
			<g>
				<g>
					<g>
						<path class="st14" d="M695.3,778.3c-8.9,0-14.9-5.3-15-5.4c-0.9-0.8-1-2.2-0.2-3.1c0.8-0.9,2.2-1,3.1-0.2
							c0.5,0.4,11.1,9.5,24.6-0.1c1-0.7,2.3-0.5,3,0.5c0.7,1,0.5,2.3-0.5,3C704.9,777,699.8,778.3,695.3,778.3z"/>
					</g>
				</g>
			</g>
			<g>
				<g>
					<g>
						<path class="st15" d="M788.2,715.7c0,5.8-4.7,10.6-10.6,10.6c-5.8,0-10.6-4.7-10.6-10.6c0-5.8,4.7-10.6,10.6-10.6
							C783.5,705.1,788.2,709.8,788.2,715.7z"/>
					</g>
				</g>
				<g>
					<g>
						<circle class="st15" cx="620.9" cy="715.7" r="10.6"/>
					</g>
				</g>
			</g>
			<g>
				<g>
					<path class="st12" d="M614.3,669.7c12.7-3.6,27.5,2.8,38.8-4.4c11.4-7.2,12.7-23.6,15.9-37.1c3.1-12.9,10-25.7,20.5-32.3H583.5
						c-10.3,21.4-16.2,46.3-16.2,72.9c0,18.9,3,36.9,8.4,53.4c3.4-5.3,6.2-11.1,8.7-16.7C591,690.7,599.2,674,614.3,669.7z"/>
				</g>
			</g>
			<g>
				<g>
					<polygon class="st2" points="729.6,853.7 666.7,853.7 678.4,793.3 717.9,793.3 					"/>
				</g>
			</g>
			<g>
				<g>
					<path class="st16" d="M927.1,377.5"/>
				</g>
			</g>
			<g>
				<g>
					<g>
						<path class="st10" d="M971.9,833.8c-24.7,36.2-54.7,63.4-84.9,83.8c-18,12.2-28.3,32.9-26.6,54.6l10.6,135.1
							c-26.2,9-53.1,16.9-80.8,23.5c-15.3,3.6-30.7,6.9-46.4,9.7c-14.2,2.5-28.6,4.7-43.1,6.5c0,0-13.4,1-35.3-0.2
							c-13-0.7-29.1-2.2-47.1-5.2c-15.7-2.6-32.9-6.3-50.9-11.6l-12.7-3.9h0c-6.8-2.2-13.7-4.7-20.7-7.5l11.4-144.9
							c1.7-22-8.9-43.1-27.4-55.2c-32-20.8-64.1-49-90.3-87.4c-39-57.1-58.2-126.6-55.9-201.8l77.7,2c4,47.8,18.9,91.6,44.2,128.5
							c31.5,46.1,74.3,74.4,111.8,91.6c6.8,3.1,13.8,5.4,21,6.9c7.2,1.5,14.6,2.3,22,2.3c5.3,0,9.7-4.3,9.7-9.7v-11.3h79.8v11.3
							c0,5.4,4.3,9.7,9.7,9.7h8.6c16.1,0,32-3.7,46.5-10.9c35.3-17.5,74-44.8,103-87.4c25.2-37,40.2-80.7,44.2-128.5l77.7-2
							C1030.1,707.2,1010.9,776.7,971.9,833.8z"/>
					</g>
				</g>
			</g>
			<g>
				<path class="st17" d="M621.6,957.9c2.3-5,4.5-10,6.8-15.1c2.2-4.8,4.4-9.7,5.3-14.9c0.9-5.2,0.5-10.8-2.2-15.3
					c-0.6-0.9-1.2-1.8-2.2-2.2c-1.3-0.6-2.9-0.3-4.3,0.2c-7.6,2.6-13.4,9.7-14.6,17.6c-1.8-5.8-5-11.8-10.8-13.5
					c-1.3-0.4-2.7-0.5-3.9,0.1c-2.1,1.1-2.6,3.9-2.5,6.2c0.3,7.6,4.1,15.1,10.1,19.8c-3.7-0.4-7.3-0.8-11-1.2
					c-1.7-0.2-3.4-0.4-5,0.1c-1.6,0.5-3.2,1.7-3.4,3.3c-0.2,1.2,0.3,2.5,0.9,3.5c3.1,5.1,9.6,7,15.5,7.7c5.9,0.7,12.2,0.7,17.5,3.5
					L621.6,957.9z"/>
				<path class="st18" d="M661.6,955.3c3.3-2.8,3.7-7.7,0.9-10.9c-2.8-3.3-7.7-3.7-10.9-0.9c-3.3,2.8-3.7,7.7-0.9,10.9
					C653.5,957.7,658.4,958,661.6,955.3z"/>
				<path class="st18" d="M673.8,969.6c-2.8-3.3-7.7-3.7-10.9-0.9c-3.3,2.8-3.7,7.7-0.9,10.9c2.8,3.3,7.7,3.7,10.9,0.9
					C676.2,977.7,676.6,972.8,673.8,969.6z"/>
				
					<ellipse transform="matrix(0.924 -0.3824 0.3824 0.924 -322.9753 319.5338)" class="st18" cx="642.5" cy="972.4" rx="8.3" ry="8.3"/>
				<path class="st17" d="M649.9,866.2c4.5-3.2,8.9-6.5,13.4-9.7c4.3-3.1,8.6-6.3,12-10.3c1.6-1.9,3-4,4-6.3h-21v11.3
					c0,5.4-4.3,9.7-9.7,9.7c-1.5,0-3.1,0-4.6-0.1c1,1,1.9,2.2,2.7,3.4L649.9,866.2z"/>
				<path class="st18" d="M686,883.8c4.2-0.8,7-4.8,6.2-9c-0.8-4.2-4.8-7-9-6.2c-4.2,0.8-7,4.8-6.2,9
					C677.7,881.8,681.8,884.6,686,883.8z"/>
				<path class="st18" d="M683.2,911.3c4.2-0.8,7-4.8,6.2-9c-0.8-4.2-4.8-7-9-6.2c-4.2,0.8-7,4.8-6.2,9
					C675,909.3,679,912.1,683.2,911.3z"/>
				<path class="st18" d="M662.4,897.3c4.5-0.8,7.5-5.2,6.6-9.7c-0.8-4.5-5.2-7.5-9.7-6.6c-4.5,0.8-7.5,5.2-6.6,9.7
					C653.5,895.2,657.8,898.2,662.4,897.3z"/>
				<path class="st17" d="M790.2,1130.9c-15.3,3.6-30.7,6.9-46.4,9.7c-0.3,0-0.5-0.1-0.8-0.1l-1.1-3.7c1.1-5.9-0.9-11.8-2-17.7
					c-1.2-5.9-1.3-12.6,2.6-17.1c0.8-0.9,1.8-1.8,3.1-2c1.7-0.2,3.3,0.8,4.2,2.3c0.9,1.4,1.3,3.1,1.6,4.8c0.7,3.6,1.5,7.2,2.2,10.8
					c2.7-7.1,8.6-13,15.8-15.7c2.2-0.8,5.1-1.2,6.7,0.5c0.9,1,1.2,2.4,1.3,3.7c0.1,6-4.6,11-9.6,14.4c7.9-1.3,16.4,2.1,21.2,8.5
					C789.6,1129.7,790,1130.3,790.2,1130.9z"/>
				<path class="st17" d="M848.8,1038.2c-1.2-0.8-2.8-0.7-4.2-0.4c-7.9,1.6-14.6,7.7-16.9,15.4c-0.9-5.9-3.4-12.4-8.8-14.9
					c-1.2-0.6-2.6-0.9-3.9-0.5c-2.3,0.8-3.1,3.5-3.4,5.8c-0.7,7.6,2,15.5,7.2,21c-3.6-0.9-7.1-1.8-10.7-2.7c-1.6-0.4-3.3-0.8-5-0.6
					c-1.7,0.2-3.4,1.2-3.9,2.8c-0.4,1.2-0.1,2.5,0.4,3.6c2.4,5.5,8.5,8.3,14.3,9.8c5.8,1.5,12,2.3,16.8,5.9l3.8,0.7
					c2.9-4.7,5.9-9.3,8.8-14c2.8-4.5,5.7-9,7.3-14c1.7-5,2-10.7-0.1-15.5C850.2,1039.7,849.7,1038.7,848.8,1038.2z"/>
				<path class="st18" d="M863.9,1084.8c1.3,2,3.4,3.2,5.6,3.5l-1.2-15.1c-0.7,0.2-1.4,0.5-2,0.9
					C862.7,1076.4,861.6,1081.2,863.9,1084.8z"/>
				<path class="st18" d="M871.3,1110.6l-0.5-5.9C870.2,1106.6,870.3,1108.8,871.3,1110.6z"/>
				<path class="st18" d="M846.2,1105.9c2.5,3.9,7.6,5,11.5,2.6c3.9-2.5,5-7.6,2.6-11.5c-2.5-3.9-7.6-5-11.5-2.6
					C844.9,1096.9,843.8,1102,846.2,1105.9z"/>
				<path class="st17" d="M618.4,1141.7c0.8-4.6,0.3-9.4,0.2-14.2c-0.1-6,0.9-12.6,5.6-16.4c1-0.8,2.1-1.4,3.4-1.4
					c1.7,0.1,3.1,1.4,3.8,3c0.7,1.6,0.7,3.3,0.8,5c0.1,3.7,0.2,7.4,0.3,11c3.9-6.6,10.8-11.3,18.3-12.6c2.3-0.4,5.2-0.3,6.5,1.7
					c0.7,1.1,0.8,2.5,0.6,3.8c-1,5.9-6.5,10-12,12.5c8,0.1,15.8,5,19.4,12.1c0.1,0.2,0.2,0.4,0.3,0.6
					C652.4,1146.2,636.3,1144.6,618.4,1141.7z"/>
				<path class="st17" d="M546.4,848.5c-0.1,1.1,0,2.2,0.5,3.1c0.7,1.3,2.2,1.9,3.6,2.3c7.7,2.3,16.6,0,22.1-5.8
					c-1.9,5.7-2.8,12.5,0.8,17.3c0.8,1.1,1.9,2,3.2,2.2c2.3,0.4,4.4-1.6,5.7-3.6c4.2-6.4,5.5-14.6,3.4-22c2.7,2.5,5.5,4.9,8.2,7.4
					c1.3,1.1,2.6,2.3,4.1,2.9c1.6,0.6,3.5,0.5,4.7-0.7c0.3-0.3,0.5-0.6,0.7-1c-13.2-6.1-26.9-13.6-40.6-22.8c-3.3,2-6.6,4.2-9.3,6.8
					C549.8,838.4,546.8,843.2,546.4,848.5z"/>
				<path class="st18" d="M494.4,775.8c-2.7,3.3-2.3,8.2,1,10.9c3.3,2.7,8.2,2.3,10.9-1c1.7-2,2.2-4.7,1.5-7.1
					c-1.3-1.6-2.6-3.2-3.9-4.8C500.8,772.3,496.8,773,494.4,775.8z"/>
				<path class="st18" d="M482.4,790.2c-3.3-2.7-8.2-2.3-10.9,1c-2.7,3.3-2.3,8.2,1,10.9c3.3,2.7,8.2,2.3,10.9-1
					C486.1,797.9,485.7,793,482.4,790.2z"/>
				<path class="st18" d="M470,777.1c3.5,3,8.8,2.5,11.7-1c3-3.5,2.5-8.8-1-11.7s-8.8-2.5-11.7,1C466,768.9,466.5,774.1,470,777.1z"
					/>
				<path class="st17" d="M439,663.8c-1.9-5.7-5.3-11.7-11.1-13.3c-1.3-0.4-2.7-0.5-3.9,0.2c-2.1,1.1-2.5,3.9-2.4,6.3
					c0.5,7.6,4.5,15,10.6,19.6c-3.7-0.3-7.3-0.6-11-0.9c-1.7-0.1-3.4-0.3-5,0.2c-1.6,0.5-3.1,1.8-3.4,3.4c-0.2,1.2,0.3,2.5,1,3.5
					c3.2,5,9.7,6.8,15.7,7.3c6,0.5,12.2,0.3,17.6,3.1l3.9,0c2.1-5,4.2-10,6.3-15c-2.6-10.3-4.6-20.8-6-31.5
					C444.7,649.9,439.9,656.5,439,663.8z"/>
				<path class="st18" d="M465.9,712.7c1,1.1,2.2,1.9,3.5,2.3c-1.6-3.9-3.2-7.9-4.6-11.9C463.2,706.2,463.5,710,465.9,712.7z"/>
				<path class="st17" d="M417.3,771c1-0.3,2.1-0.7,2.7-1.5c0.9-1.1,1-2.7,0.9-4.1c-0.5-8-5.7-15.5-13.1-18.8
					c6-0.2,12.7-1.7,15.9-6.8c0.7-1.1,1.2-2.5,1-3.8c-0.4-2.3-3-3.6-5.3-4.1c-7.5-1.7-15.6-0.1-21.8,4.4c1.4-3.4,2.7-6.8,4.1-10.3
					c0.6-1.6,1.3-3.2,1.3-4.9c0-1.7-0.8-3.5-2.3-4.2c-1.1-0.5-2.4-0.4-3.6-0.1c-5.8,1.6-9.3,7.4-11.6,12.9c-0.6,1.6-1.2,3.2-1.9,4.9
					c2.6,9.6,5.6,19,8.9,28.2c2.9,2.3,6,4.5,9.4,6.2C406.7,771.3,412.2,772.4,417.3,771z"/>
				<path class="st17" d="M818.8,1002.1c1-0.3,2-0.8,2.7-1.6c0.9-1.1,1-2.7,0.8-4.2c-0.7-8-6.2-15.4-13.6-18.4
					c6-0.3,12.7-2,15.7-7.2c0.7-1.1,1.2-2.5,0.9-3.8c-0.5-2.3-3.1-3.5-5.5-4c-7.5-1.5-15.6,0.3-21.7,5c1.3-3.5,2.5-6.9,3.8-10.4
					c0.6-1.6,1.2-3.2,1.1-4.9c0-1.7-0.9-3.5-2.4-4.1c-1.1-0.5-2.5-0.3-3.6,0.1c-5.7,1.8-9.1,7.6-11.2,13.2
					c-2.1,5.6-3.6,11.7-7.6,16.1l-1.1,3.7c4.3,3.4,8.7,6.8,13,10.2c4.2,3.3,8.4,6.6,13.2,8.7
					C808.2,1002.7,813.8,1003.6,818.8,1002.1z"/>
				<path class="st18" d="M770.1,1021.1c1.9,3.8,6.6,5.4,10.4,3.5c3.8-1.9,5.4-6.6,3.5-10.4c-1.9-3.8-6.6-5.4-10.4-3.5
					C769.7,1012.6,768.2,1017.2,770.1,1021.1z"/>
				
					<ellipse transform="matrix(0.9983 -5.812820e-02 5.812820e-02 0.9983 -58.1678 45.3155)" class="st18" cx="749.8" cy="1022.5" rx="7.7" ry="7.7"/>
				<path class="st18" d="M761.8,1005.8c4.1-2,5.8-7,3.7-11.2c-2-4.1-7-5.8-11.2-3.7c-4.1,2-5.8,7-3.7,11.2
					C752.7,1006.2,757.7,1007.8,761.8,1005.8z"/>
				<path class="st17" d="M770.5,878.1c4.3,3.4,8.7,6.8,13,10.2c4.2,3.3,8.4,6.6,13.2,8.7c4.8,2.2,10.4,3.1,15.4,1.5
					c1-0.3,2-0.8,2.7-1.6c0.9-1.1,1-2.7,0.8-4.2c-0.7-8-6.2-15.4-13.6-18.4c6-0.3,12.7-2,15.7-7.2c0.7-1.1,1.2-2.5,0.9-3.8
					c-0.5-2.3-3.1-3.5-5.5-4c-7.5-1.5-15.6,0.3-21.7,5c1.3-3.5,2.5-6.9,3.8-10.4c0.1-0.3,0.2-0.6,0.3-0.9
					c-5.3,2.2-10.9,3.9-16.5,5.1c-2.1,5.6-3.6,11.7-7.6,16.1L770.5,878.1z"/>
				<path class="st18" d="M773.8,921.1c3.8-1.9,5.4-6.6,3.5-10.4c-1.9-3.8-6.6-5.4-10.4-3.5c-3.8,1.9-5.4,6.6-3.5,10.4
					C765.3,921.4,770,923,773.8,921.1z"/>
				<path class="st18" d="M746.6,926c3.8-1.9,5.4-6.6,3.5-10.4c-1.9-3.8-6.6-5.4-10.4-3.5c-3.8,1.9-5.4,6.6-3.5,10.4
					C738.1,926.3,742.8,927.9,746.6,926z"/>
				<path class="st18" d="M755.2,902.3c4.1-2,5.8-7,3.7-11.2c-2-4.1-7-5.8-11.2-3.7c-4.1,2-5.8,7-3.7,11.2
					C746,902.7,751,904.4,755.2,902.3z"/>
				<path class="st17" d="M964.4,842c-5.7-5.1-13.7-7.5-21.3-6.6c2.8-2.4,5.7-4.7,8.5-7.1c1.3-1.1,2.6-2.2,3.4-3.7
					c0.8-1.5,1-3.4,0-4.8c-0.7-1-2-1.5-3.2-1.8c-5.8-1.3-11.7,2-16.3,5.8c-4.6,3.8-9,8.3-14.7,10.1l-2.8,2.7
					c2,5.1,4.1,10.2,6.1,15.3c2,4.9,3.9,9.9,7,14.2c2.2,3,5,5.7,8.2,7.4c4.1-4.3,8.2-8.7,12.1-13.3c-0.4-4-1.9-7.8-4.4-11
					c3.3,1.7,7.2,3.1,10.9,3.1c2.5-3.1,4.9-6.3,7.3-9.5C965.1,842.6,964.7,842.3,964.4,842z"/>
				<path class="st18" d="M900.4,860.1c-4.3-0.3-7.9,3-8.2,7.2c-0.3,4.3,3,7.9,7.2,8.2c4.3,0.3,7.9-3,8.2-7.2
					C907.9,864,904.6,860.3,900.4,860.1z"/>
				<path class="st18" d="M874.4,850.6c-4.3-0.3-7.9,3-8.2,7.2c-0.3,4.3,3,7.9,7.2,8.2c4.3,0.3,7.9-3,8.2-7.2
					C881.9,854.6,878.7,850.9,874.4,850.6z"/>
				<path class="st18" d="M901.5,842.2c0.3-4.6-3.2-8.5-7.8-8.8c-4.6-0.3-8.5,3.2-8.8,7.8c-0.3,4.6,3.2,8.5,7.8,8.8
					C897.3,850.2,901.2,846.7,901.5,842.2z"/>
				<path class="st18" d="M854.1,950.6c-3.2,2.9-3.4,7.8-0.5,10.9c1.8,1.9,4.3,2.8,6.7,2.5c0.3-5,1.2-9.8,2.7-14.5
					C860.2,948,856.6,948.3,854.1,950.6z"/>
				<path class="st18" d="M842,925.8c-3.2,2.9-3.4,7.8-0.5,10.9c2.9,3.2,7.8,3.4,10.9,0.5c3.2-2.9,3.4-7.8,0.5-10.9
					C850,923.2,845.1,922.9,842,925.8z"/>
				<path class="st18" d="M867.1,926.7c-3.4,3.1-3.6,8.4-0.5,11.8c0.3,0.3,0.5,0.5,0.8,0.8c2.6-4.9,5.9-9.4,9.8-13.4
					C874.1,923.9,869.9,924.1,867.1,926.7z"/>
				<path class="st17" d="M950.8,696.8c3.1,4.3,7.4,7.9,12.6,9.1c1,0.2,2.1,0.4,3.1,0c1.4-0.5,2.2-1.9,2.8-3.2
					c3.4-7.3,2.4-16.4-2.5-22.7c5.4,2.7,12,4.6,17.2,1.6c1.2-0.6,2.3-1.6,2.7-2.8c0.7-2.3-1-4.6-2.7-6.2c-5.7-5.1-13.7-7.5-21.3-6.6
					c2.8-2.4,5.7-4.7,8.5-7.1c1.3-1.1,2.6-2.2,3.4-3.7c0.8-1.5,1-3.4,0-4.8c-0.7-1-2-1.5-3.2-1.8c-5.8-1.3-11.7,2-16.3,5.8
					c-2.9,2.3-5.6,5-8.6,7.1c-1.1,6.1-2.4,12.2-3.9,18.2c0.4,1,0.8,2,1.2,2.9C945.8,687.6,947.8,692.5,950.8,696.8z"/>
				<path class="st18" d="M910.2,756c-0.9,1.4-1.7,2.7-2.6,4.1C908.9,759,909.8,757.6,910.2,756z"/>
				<path class="st18" d="M908.3,773.6c-3.4,2.6-3.9,7.5-1.3,10.9c2.6,3.4,7.5,3.9,10.9,1.3c3.4-2.6,3.9-7.5,1.3-10.9
					C916.5,771.5,911.7,770.9,908.3,773.6z"/>
				<path class="st18" d="M896.1,776c-2.4,3-4.8,5.9-7.2,8.8c1.4-0.2,2.9-0.7,4.1-1.7C895.1,781.3,896.2,778.6,896.1,776z"/>
				<path class="st17" d="M1013.8,713.1c0.5-1.6,1-3.3,0.8-5c-0.1-1.7-1.1-3.4-2.7-4c-1.2-0.4-2.5-0.2-3.6,0.3
					c-5.6,2.1-8.7,8.1-10.4,13.8c-1.8,5.7-2.9,11.9-6.7,16.5l-0.8,3.8c4.5,3.1,9,6.3,13.5,9.4c2.4,1.7,4.9,3.4,7.4,4.9
					c3.6-11.3,6.7-22.8,9.1-34.5c-3.6,1.1-7,2.9-9.9,5.4C1011.7,720.2,1012.7,716.7,1013.8,713.1z"/>
				<path class="st18" d="M988.5,767.8c-3.7,2.1-5,6.8-2.9,10.6s6.8,5,10.6,2.9s5-6.8,2.9-10.6C996.9,767,992.2,765.7,988.5,767.8z"
					/>
				<path class="st18" d="M961.6,774.2c-3.7,2.1-5,6.8-2.9,10.6c2.1,3.7,6.8,5,10.6,2.9c3.7-2.1,5-6.8,2.9-10.6
					S965.3,772.1,961.6,774.2z"/>
				<path class="st18" d="M968.2,749.1c-4,2.3-5.4,7.4-3.1,11.4c2.3,4,7.4,5.4,11.4,3.1c4-2.3,5.4-7.4,3.1-11.4
					C977.3,748.2,972.2,746.8,968.2,749.1z"/>
				<path class="st17" d="M561.5,1093c4.4-3,8.1-7.2,9.4-12.3c0.3-1,0.4-2.1,0.1-3.1c-0.5-1.4-1.8-2.2-3.1-2.9
					c-7.2-3.6-16.3-2.8-22.8,2c2.9-5.3,4.9-11.9,2.1-17.2c-0.6-1.2-1.5-2.3-2.8-2.7c-1.9-0.7-3.9,0.4-5.5,1.9l-3.6,45.5
					c4-1.5,8-3,11.9-4.4C552.2,1097.8,557.2,1095.9,561.5,1093z"/>
				<path class="st18" d="M570,1125.1c-0.2,2-1.1,3.8-2.6,5.1l-12.7-3.9h0c-0.2-0.8-0.3-1.6-0.2-2.5c0.4-4.3,4.1-7.4,8.4-7
					C567.3,1117,570.4,1120.8,570,1125.1z"/>
				<path class="st18" d="M515,911.4c-2.5-3-6.8-3.6-10-1.6c3.9,2.8,7.8,5.4,11.7,8C517.1,915.6,516.6,913.2,515,911.4z"/>
				<path class="st18" d="M529.4,899.3c-3.3,2.8-3.7,7.6-0.9,10.9c2.8,3.3,7.6,3.7,10.9,0.9s3.7-7.6,0.9-10.9
					C537.5,896.9,532.6,896.5,529.4,899.3z"/>
				<path class="st18" d="M538.4,925.3c-3-3.5-8.2-4-11.7-1c-0.2,0.2-0.4,0.4-0.6,0.6c4.1,3.8,7.7,8.1,10.6,12.7
					c0.3-0.2,0.6-0.4,0.8-0.6C540.9,934,541.4,928.8,538.4,925.3z"/>
				<path class="st17" d="M641.8,1070.7l3.8,0.6c2.9-4.7,5.8-9.4,8.7-14c2.8-4.5,5.6-9,7.2-14.1c1.6-5,2-10.7-0.2-15.5
					c-0.4-1-1-1.9-1.9-2.5c-1.2-0.8-2.8-0.7-4.2-0.4c-7.9,1.6-14.6,7.8-16.8,15.5c-1-5.9-3.4-12.4-8.9-14.8
					c-1.2-0.5-2.6-0.9-3.9-0.4c-2.3,0.8-3.1,3.5-3.3,5.9c-0.7,7.6,2.1,15.5,7.4,21c-3.6-0.9-7.2-1.8-10.7-2.6
					c-1.6-0.4-3.3-0.8-5-0.6c-1.7,0.2-3.4,1.3-3.8,2.9c-0.4,1.2,0,2.5,0.5,3.6c2.4,5.5,8.6,8.2,14.4,9.7
					C630.8,1066.4,637,1067.1,641.8,1070.7z"/>
				<path class="st18" d="M688,1063.3c-2.3-3.6-7.1-4.6-10.7-2.3c-3.6,2.3-4.6,7.1-2.3,10.7c2.3,3.6,7.1,4.6,10.7,2.3
					C689.3,1071.7,690.3,1066.9,688,1063.3z"/>
				<path class="st18" d="M685.2,1087.5c-3.6,2.3-4.6,7.1-2.3,10.7c2.3,3.6,7.1,4.6,10.7,2.3c3.6-2.3,4.6-7.1,2.3-10.7
					C693.5,1086.2,688.8,1085.1,685.2,1087.5z"/>
				<path class="st18" d="M659.9,1081.4c-3.9,2.5-5,7.6-2.5,11.5c2.5,3.9,7.6,5,11.5,2.5c3.9-2.5,5-7.6,2.5-11.5
					C668.9,1080,663.8,1078.9,659.9,1081.4z"/>
				<path class="st17" d="M552.9,1022.1c1.4-0.5,2.3-1.8,3-3.1c3.7-7.1,3.1-16.3-1.5-22.8c5.2,3,11.8,5.1,17.1,2.4
					c1.2-0.6,2.3-1.5,2.8-2.7c0.8-2.2-0.8-4.6-2.5-6.3c-5.5-5.3-13.3-8.1-21-7.5c2.9-2.2,5.9-4.5,8.8-6.7c1.3-1,2.7-2.1,3.6-3.5
					c0.9-1.4,1.1-3.4,0.2-4.8c-0.7-1-1.9-1.6-3.1-1.9c-5.1-1.4-10.3,0.8-14.7,3.8c0,1.6,0,3.2-0.2,4.9l-3.4,43.7
					c2.2,2,4.9,3.6,7.8,4.4C550.8,1022.2,551.9,1022.4,552.9,1022.1z"/>
				<path class="st17" d="M477.9,837.2c3.4-1.3,6.9-2.6,10.3-3.9c1.6-0.6,3.2-1.2,4.4-2.4c1.2-1.1,2.1-2.9,1.5-4.5
					c-0.4-1.2-1.4-2.1-2.4-2.7c-5.1-3.1-11.7-1.9-17.3,0.2c-5.6,2.1-11.2,4.9-17.2,4.8l-3.5,1.6c0.3,5.5,0.5,11,0.8,16.5
					c0.3,5.3,0.5,10.6,2,15.7c1.5,5.1,4.4,9.9,8.9,12.7c0.9,0.6,1.9,1,3,1c1.5-0.1,2.7-1.1,3.7-2.1c5.6-5.8,7.6-14.7,5-22.3
					c4.2,4.3,9.8,8.2,15.7,7.2c1.3-0.2,2.6-0.8,3.4-1.8c1.4-1.9,0.6-4.6-0.6-6.7C492.1,843.7,485.4,838.8,477.9,837.2z"/>
				<path class="st18" d="M436.4,830.1c1.8-4.2-0.2-9.1-4.5-10.9c-3.7-1.6-7.9-0.2-10.1,3c1.9,3.1,3.9,6.1,6,9.1
					c0.9,1.3,1.7,2.5,2.6,3.7C432.9,834.5,435.3,832.7,436.4,830.1z"/>
			</g>
			<g>
				<g>
					<path class="st2" d="M423.3,394.7l8.8-33.4l36.8-29.3l45.5,13.4l0,0c-3.5,5.2-9.9,7.6-16,6.1l-24.2-6.1l-20.1,15.9l31.9-7.2
						l28.5,14.5l0,0c-4.1,4.4-10.4,6.1-16.2,4.3l-14-4.3l-21.8,7.3l28.5-9.8l12.9,16.7l-3.5,1c-4.8,1.4-10-0.6-12.7-4.9l0,0
						l-15.7,3.8l20.1-0.8l5.6,11.5l0,0c-4.3,1.9-9.4,0.3-11.9-3.7l-0.1-0.2l-12,1.3L453,408L423.3,394.7z"/>
				</g>
			</g>
			<g>
				<g>
					<g>
						<g>
							<g>
								<path class="st19" d="M970.8,483.8L878,526.7c-9.1,4.2-19.8-0.6-22.7-10.1l-36.1-117l93-42.9L977.8,460
									C983.2,468.4,979.9,479.7,970.8,483.8z"/>
							</g>
						</g>
						<g>
							<g>
								<g>
									<path class="st19" d="M840,402.7c-11.1-16.3-19.9-33.7-3.5-49.8c12.4-12.2,30.1-18.8,47.5-18.5c17.8,0.3,36.3,7.8,46.5,23
										c10,14.7,7,39.6-13.3,43.4c-10.5,1.9-7.8,18.2,2.7,16.3c24.9-4.6,38.3-31.6,31-55c-8-25.7-34.3-41.5-60.1-43.9
										c-24.6-2.3-50.5,6.5-67.5,24.7c-21.4,22.8-11.4,47.7,4.1,70.5C833.3,422.2,845.9,411.5,840,402.7L840,402.7z"/>
								</g>
							</g>
						</g>
						<g>
							<g>
								<path class="st19" d="M865.5,504.3c-10.7-0.6-21.5-1.7-31.6-5.6c-11.5-4.5-21.4-12.3-32.2-18.4
									c-10.8-6.1-23.5-10.5-35.4-7.2l-4.3-9.4c10.5-6.5,24-5.9,36-3.1c12.1,2.8,23.7,7.5,36.1,8.5c10.7,0.9,21.4-1.1,31.9-3.5
									L865.5,504.3z"/>
							</g>
						</g>
						<g>
							<g>
								<path class="st19" d="M751.2,455.8l11,31.1c8.6-3,13.1-12.5,10-21.1C769.3,457.3,759.8,452.8,751.2,455.8z"/>
							</g>
						</g>
					</g>
					<g>
						<g>
							<g>
								<path class="st20" d="M746.6,508.2c-1.6,3.6-5.9,5.2-9.5,3.6c-3.6-1.6-5.2-5.9-3.6-9.5c1.6-3.6,12.4-9.9,12.4-9.9
									S748.2,504.6,746.6,508.2z"/>
							</g>
						</g>
						<g>
							<g>
								<path class="st20" d="M704.1,542.3c-0.8,3.9-4.6,6.4-8.4,5.6c-3.9-0.8-6.4-4.6-5.6-8.4c0.8-3.9,9.8-12.5,9.8-12.5
									S704.8,538.4,704.1,542.3z"/>
							</g>
						</g>
						<g>
							<g>
								<path class="st20" d="M739.4,542.6c-0.6,3.9-4.2,6.6-8.1,6c-3.9-0.6-6.6-4.2-6-8.1c0.6-3.9,9.1-13,9.1-13
									S740,538.7,739.4,542.6z"/>
							</g>
						</g>
						<g>
							<g>
								<path class="st20" d="M725.8,481.8c-3.5,1.8-7.8,0.5-9.7-3c-1.8-3.5-0.5-7.8,3-9.7c3.5-1.8,15.8-0.2,15.8-0.2
									S729.3,479.9,725.8,481.8z"/>
							</g>
						</g>
						<g>
							<g>
								<path class="st20" d="M719.6,515.9c-2.5,3.1-7,3.6-10.1,1.2c-3.1-2.5-3.6-7-1.2-10.1c2.5-3.1,14.4-6.6,14.4-6.6
									S722.1,512.8,719.6,515.9z"/>
							</g>
						</g>
						<g>
							<g>
								<path class="st20" d="M696.5,505.2c-1.9,3.5-6.2,4.8-9.7,2.9c-3.5-1.9-4.8-6.2-2.9-9.7c1.9-3.5,13-9,13-9
									S698.4,501.8,696.5,505.2z"/>
							</g>
						</g>
					</g>
				</g>
				<g>
					<g>
						<g>
							
								<rect x="887" y="412.5" transform="matrix(0.9154 -0.4025 0.4025 0.9154 -100.6832 397.1903)" class="st21" width="15.6" height="51.3"/>
						</g>
					</g>
					<g>
						<g>
							
								<rect x="887" y="412.5" transform="matrix(-0.4025 -0.9154 0.9154 -0.4025 853.8331 1433.6648)" class="st21" width="15.6" height="51.3"/>
						</g>
					</g>
				</g>
			</g>
			<g>
				<g>
					<path class="st2" d="M975.6,386l-0.7-36.5l-24.9-22.8L921.3,343c-0.8,0.5-1.2,1.5-0.8,2.4l2,4.3c0.3,0.8,1.2,1.2,2,1l2.1-0.4
						l-1.5,2.4c-0.3,0.5-0.3,1-0.2,1.6l0.5,1.3c0.3,0.7,1,1.2,1.8,1.2l1.8,0l-0.8,2.5c-0.2,0.5-0.1,0.9,0.1,1.4l0.6,1.2
						c0.3,0.7,1.1,1.1,1.9,1l1.6-0.2l-1.5,2.1l0.3,0.7c0.7,1.4,2.3,2.1,3.9,1.7l12.6-3.4l12.2,16.7l-3.6,10.9L975.6,386z"/>
				</g>
			</g>
			<circle class="st1" cx="216.1" cy="540.3" r="97"/>
			<circle class="st1" cx="172.6" cy="364.7" r="34.8"/>
			<circle class="st1" cx="570.8" cy="139.7" r="47.1"/>
			<circle class="st1" cx="444.2" cy="127.9" r="21.1"/>
			<circle class="st1" cx="1238.4" cy="470.2" r="49.9"/>
			<circle class="st1" cx="1225" cy="328.5" r="22"/>
			<circle class="st5" cx="1055.3" cy="270.7" r="41.3"/>
			<circle class="st22" cx="705.5" cy="336.5" r="28.2"/>
			<circle class="st5" cx="305.6" cy="519.5" r="38.1"/>
			<circle class="st22" cx="1225.2" cy="698.1" r="16.9"/>
		</g>
		<g>
			<path class="st3" d="M422.2,242.9c-9.8-9.6-24.9-10.5-35.6-2.7c-7.9-11-22.9-14.9-35.2-8.4c-12.1,6.3-17.6,20.4-13.5,33
				c-12.9,4.1-21.2,17.2-18.9,30.9c2.3,13.5,14,23.1,27.2,23.1c-0.1,13.6,9.8,25.5,23.5,27.5c13.5,2,26.3-6.2,30.4-18.8
				c12.9,4.3,27.2-1.4,33.5-13.9c6.1-12.3,2.3-26.9-8.5-34.7C433.1,268.2,432.1,252.7,422.2,242.9z"/>
			<circle class="st22" cx="377.9" cy="283.4" r="18"/>
		</g>
		<g>
			<path class="st3" d="M1147.4,540.9c0.1-12.3-8.7-22.5-20.4-24.6c2.2-11.9-4.6-24-16.5-27.9c-11.6-3.9-24.1,1.3-29.7,11.8
				c-10.7-5.8-24.2-3-31.7,7c-7.3,9.8-6.2,23.3,2,31.9c-8.8,8.3-10.4,22.1-3.1,32.3c7.1,10,20.3,13.1,30.9,7.9
				c5.2,11,17.8,16.7,29.7,12.9c11.7-3.7,18.7-15.2,17.1-27C1138,563.6,1147.3,553.3,1147.4,540.9z"/>
			<circle class="st22" cx="1093.8" cy="537.4" r="16.1"/>
		</g>
		<g>
			<path class="st22" d="M929,135c0.7-17.3-11.3-32.2-27.7-35.6c3.7-16.7-5.5-34.1-22-40.2c-16.2-6-34.1,0.8-42.4,15.4
				c-14.8-8.7-34.1-5.3-45,8.5c-10.7,13.6-9.8,32.7,1.5,45.1c-12.8,11.4-15.6,30.8-5.8,45.4c9.6,14.4,28.1,19.4,43.4,12.5
				c6.9,15.7,24.4,24.3,41.4,19.6c16.7-4.7,27.1-20.7,25.3-37.4C914.7,166.6,928.3,152.6,929,135z"/>
			<circle class="st23" cx="853.5" cy="127.7" r="22.8"/>
		</g>
		<g>
			<path class="st22" d="M237.2,616.9c-6.7-7.4-17.7-8.6-25.8-3.4c-5.3-8.3-16-11.7-25.3-7.6c-9.1,4.1-13.6,14.1-11.2,23.5
				c-9.6,2.4-16.1,11.6-15,21.7c1.1,9.9,9.2,17.3,18.9,17.9c-0.6,9.9,6.1,18.9,16,21c9.8,2,19.3-3.4,22.8-12.4
				c9.2,3.6,19.9,0.1,24.9-8.7c4.9-8.7,2.7-19.4-4.7-25.6C244.1,635.7,244,624.4,237.2,616.9z"/>
			<circle class="st23" cx="203.3" cy="644.5" r="13.1"/>
		</g>
	</g>
</g>
</svg>
